<?xml version="1.0" encoding="UTF-8"?>
<svg width="825px" height="123px" viewBox="0 0 825 123" version="1.1" xmlns="http://www.w3.org/2000/svg" xmlns:xlink="http://www.w3.org/1999/xlink">
    <!-- Generator: Sketch 41.2 (35397) - http://www.bohemiancoding.com/sketch -->
    <title>logo</title>
    <desc>Created with Sketch.</desc>
    <defs></defs>
    <g id="Page-1" stroke="none" stroke-width="1" fill="none" fill-rule="evenodd">
        <g id="logo">
            <path d="M802.6231,73.3514 L802.6231,100.8374 L774.8411,100.8374 L752.2801,122.8374 L801.7681,122.8374 L824.6231,100.2784 L824.6231,50.7904 L802.6231,73.3514 Z M736.6231,106.8864 L736.6231,57.3984 L758.8881,34.8374 L808.3761,34.8374 L785.8151,57.8374 L759.6231,57.8374 L759.6231,84.3254 L736.6231,106.8864 Z" id="Fill-1" fill="#C34A40"></path>
            <path d="M335.0406,58.5181 C335.0406,49.5581 329.4406,44.9171 316.4796,44.9171 C305.2796,44.9171 297.4386,48.2781 297.4386,63.1581 L297.4386,77.7181 C330.0806,77.7181 335.0406,74.9981 335.0406,61.7181 L335.0406,58.5181 Z M319.3606,122.8391 C293.1196,122.8391 284.3196,112.4391 284.3196,83.9581 L284.3196,63.4781 C284.3196,42.6781 294.8806,34.5181 315.6806,34.5181 L317.7606,34.5181 C339.8416,34.5181 348.1606,42.8371 348.1606,58.6781 L348.1606,62.5181 C348.1606,81.7191 340.0006,88.1191 297.4386,88.1191 C297.4386,104.7591 303.6796,111.4791 322.2396,111.4791 C330.8806,111.4791 340.0006,109.0791 344.8006,109.0791 C346.4006,109.0791 347.5206,110.0391 347.5206,117.0801 C347.5206,118.8391 346.8806,119.4791 345.1206,119.9591 C337.4406,121.8791 327.0406,122.8391 319.3606,122.8391 L319.3606,122.8391 Z M258.9586,46.5181 C249.3596,46.5181 240.3986,50.0381 240.3986,51.3181 L240.3986,118.9991 C240.3986,121.8791 238.6386,122.8391 236.5586,122.8391 C233.6796,122.8391 227.1186,122.2001 227.1186,120.2791 L227.1186,45.7181 C227.1186,40.2781 240.2396,34.5181 258.3196,34.5181 C262.1596,34.5181 273.0396,34.3571 273.0396,38.8371 C273.0396,45.2381 271.5996,47.7981 269.8396,47.7981 C266.3206,47.1581 263.4396,46.5181 258.9586,46.5181 L258.9586,46.5181 Z M188.7586,49.0781 L188.7586,99.1591 C188.7586,106.5191 192.2786,110.8391 199.3186,110.8391 C202.0386,110.8391 204.1186,110.1991 206.9986,109.5591 C209.5586,109.5591 210.1986,113.7191 210.1986,118.5191 C210.1986,122.2001 199.7986,122.8391 194.8386,122.8391 C183.9586,122.8391 175.1576,117.7191 175.1576,100.7591 L175.1576,49.0781 L164.9176,49.0781 C163.1576,49.0781 162.0376,47.4771 162.0376,45.8781 C162.0376,42.8371 162.5176,36.4371 165.3986,36.4371 L175.1576,36.4371 L175.1576,17.2371 C175.1576,15.3171 181.8786,14.6771 185.0776,14.6771 C187.1576,14.6771 188.7586,16.2771 188.7586,18.3571 L188.7586,36.4371 L206.3596,36.4371 C208.1186,36.4371 209.2386,37.8771 209.2386,39.6381 C209.2386,42.5181 208.7596,49.0781 205.8786,49.0781 L188.7586,49.0781 Z M131.6786,60.9181 C131.6786,50.8381 129.5986,46.8381 119.3586,46.8381 C108.9576,46.8381 95.0366,51.4781 95.0366,53.8781 L95.0366,118.9991 C95.0366,121.8791 93.1166,122.8391 91.1966,122.8391 C88.1566,122.8391 81.5966,122.2001 81.5966,120.2791 L81.5966,47.9571 C81.5966,42.3571 101.5966,34.5181 121.7576,34.5181 C140.6376,34.5181 145.1176,41.8771 145.1176,61.2381 L145.1176,118.9991 C145.1176,121.8791 143.1976,122.8391 141.1176,122.8391 C138.0776,122.8391 131.6786,122.2001 131.6786,120.2791 L131.6786,60.9181 Z M51.5556,58.5181 C51.5556,49.5581 45.9556,44.9171 32.9946,44.9171 C21.7956,44.9171 13.9556,48.2781 13.9556,63.1581 L13.9556,77.7181 C46.5966,77.7181 51.5556,74.9981 51.5556,61.7181 L51.5556,58.5181 Z M35.8756,122.8391 C9.6356,122.8391 0.8346,112.4391 0.8346,83.9581 L0.8346,63.4781 C0.8346,42.6781 11.3956,34.5181 32.1956,34.5181 L34.2756,34.5181 C56.3556,34.5181 64.6766,42.8371 64.6766,58.6781 L64.6766,62.5181 C64.6766,81.7191 56.5166,88.1191 13.9556,88.1191 C13.9556,104.7591 20.1946,111.4791 38.7556,111.4791 C47.3956,111.4791 56.5166,109.0791 61.3156,109.0791 C62.9166,109.0791 64.0356,110.0391 64.0356,117.0801 C64.0356,118.8391 63.3966,119.4791 61.6356,119.9591 C53.9556,121.8791 43.5556,122.8391 35.8756,122.8391 L35.8756,122.8391 Z M669.2846,61.3161 C669.2846,54.7561 665.1256,51.7161 656.1646,51.7161 C648.4856,51.7161 642.5646,53.7961 642.5646,64.8361 L642.5646,74.2761 C666.4056,74.2761 669.2846,72.8361 669.2846,63.7161 L669.2846,61.3161 Z M659.0446,122.7571 C633.7646,122.7571 620.6446,116.0371 620.6446,87.5571 L620.6446,65.1561 C620.6446,44.9961 631.0446,34.7551 655.3656,34.7551 L657.1246,34.7551 C685.2856,34.7551 691.2056,44.8351 691.2056,61.6361 L691.2056,65.4761 C691.2056,84.6771 681.1256,91.3971 642.5646,91.3971 C642.5646,101.4771 649.6056,103.8771 664.4856,103.8771 C672.8056,103.8771 683.2056,101.9571 687.2056,101.7971 C688.9656,101.7971 690.8856,102.2771 690.8856,113.4771 C690.8856,116.9971 690.8856,118.7571 688.0056,119.7171 C681.4466,121.6371 668.3256,122.7571 659.0446,122.7571 L659.0446,122.7571 Z M581.1636,57.7961 C577.8036,56.6761 571.7236,54.9161 566.7636,54.9161 C557.6436,54.9161 555.8836,60.1961 555.8836,67.5561 L555.8836,91.3971 C555.8836,99.2371 557.6436,104.0371 567.4026,104.0371 C571.7236,104.0371 578.2836,103.2371 581.1636,102.2771 L581.1636,57.7961 Z M603.7246,110.4371 C603.7246,113.3171 603.2436,114.7571 600.2036,116.5171 C595.0836,119.5571 579.0836,122.7571 566.4426,122.7571 C536.2016,122.7571 533.1626,109.1571 533.1626,91.8771 L533.1626,66.9161 C533.1626,50.7561 537.4826,34.7551 559.5636,34.7551 C566.2836,34.7551 574.2836,36.3551 581.1636,38.7551 L581.1636,4.6751 C581.1636,0.9951 593.9636,0.8341 597.8036,0.8341 C601.1646,0.8341 603.7246,2.2751 603.7246,6.7551 L603.7246,110.4371 Z M480.5636,102.8391 C490.9636,102.8391 493.6826,99.9591 493.6826,91.4791 L493.6826,66.3581 C493.6826,57.3981 490.9636,54.8381 480.5636,54.8381 L478.9626,54.8381 C468.7226,54.8381 466.0026,57.2381 466.0026,66.3581 L466.0026,91.4791 C466.0026,100.4391 468.5626,102.8391 478.9626,102.8391 L480.5636,102.8391 Z M443.4416,66.3581 C443.4416,41.3971 453.5226,34.8371 479.2816,34.8371 L480.2426,34.8371 C506.1626,34.8371 516.2426,41.3971 516.2426,66.3581 L516.2426,91.3191 C516.2426,116.2791 506.1626,122.8391 480.2426,122.8391 L479.2816,122.8391 C453.5226,122.8391 443.4416,116.2791 443.4416,91.3191 L443.4416,66.3581 Z M421.8826,102.1171 C418.6826,102.4371 409.7226,103.2371 404.4416,103.2371 C391.3216,103.2371 387.8016,98.1171 387.8016,88.5171 L387.8016,68.9961 C387.8016,59.8761 391.3216,53.9561 405.4026,53.9561 C412.4416,53.9561 419.8026,55.5561 421.5636,55.5561 C425.0826,55.5561 426.5226,47.2361 426.5226,42.4351 C426.5226,38.2751 425.2426,37.3151 423.0026,36.6751 C419.3226,35.5561 410.2016,34.7551 401.8826,34.7551 C375.3206,34.7551 365.0806,43.2361 365.0806,68.5161 L365.0806,88.9971 C365.0806,114.5971 375.1616,122.7571 399.6426,122.7571 C409.4026,122.7571 418.3616,121.4771 421.7236,120.6771 C425.2426,119.7171 425.7236,118.4371 425.7236,112.9971 C425.7236,108.8371 425.2426,102.1171 421.8826,102.1171 L421.8826,102.1171 Z" id="Fill-2" fill="#191B1B"></path>
        </g>
    </g>
</svg>